<svg width="275" height="263" viewBox="0 0 275 263" fill="none" xmlns="http://www.w3.org/2000/svg">
<path d="M243.112 132.492C242.707 132.072 242.547 131.512 242.606 130.906C242.601 129.766 242.693 128.652 242.688 127.512C242.787 125.985 242.79 124.433 242.863 123.003C242.87 122.591 242.877 122.178 243.174 121.844C243.624 122.482 243.32 123.229 243.647 123.938C243.718 124.061 243.911 124.113 244.008 124.138C244.008 124.138 244.13 124.068 244.253 123.997C244.278 123.901 244.401 123.83 244.401 123.83C244.453 123.637 244.479 123.54 244.531 123.347C244.611 121.505 244.691 119.663 244.771 117.82C244.752 117.505 244.83 117.215 244.714 116.873C244.516 115.681 244.634 114.471 244.752 113.26C244.818 112.242 245.006 111.154 244.757 110.155C244.686 110.032 244.641 109.813 244.545 109.787C244.255 109.71 244.177 109.999 244.029 110.167C244.003 110.263 243.88 110.334 243.88 110.334C243.661 110.379 243.591 110.256 243.643 110.063C243.473 107.222 243.522 104.336 243.572 101.451C243.56 100.723 243.645 100.021 243.73 99.3191C243.796 98.3011 243.862 97.2834 244.147 96.221C244.276 95.7381 244.283 95.3258 244.22 94.7911C243.97 93.7922 244.01 92.8712 244.147 91.976C244.206 91.3706 244.194 90.6426 244.253 90.0372C244.234 89.7216 244.215 89.4059 244.1 89.0643C244.081 88.7487 243.746 88.4518 243.624 88.5225C243.501 88.5932 243.353 88.7604 243.327 88.857C242.997 89.7004 242.957 90.6214 242.943 91.4459C242.948 92.5861 242.856 93.7004 242.861 94.8405C242.853 95.2528 242.846 95.665 242.743 96.0514C242.717 96.1479 242.594 96.2186 242.446 96.3859C242.375 96.2634 242.208 96.115 242.234 96.0184C242.248 95.1939 242.288 94.2728 242.328 93.3517C242.361 92.8429 242.368 92.4306 242.498 91.9477C242.608 91.1491 242.623 90.3246 242.418 89.5449C242.302 89.2033 242.283 88.8876 242.265 88.572C241.765 86.5743 242.09 84.5908 242.609 82.6591C243.094 81.2363 243.193 79.7098 242.976 78.2021C242.957 77.8864 242.79 77.738 242.255 77.8016C242.159 77.7757 242.133 77.8723 242.036 77.8464C241.72 77.8652 241.36 77.665 241.341 77.3493C241.221 75.8676 241.294 74.4377 241.464 73.0337C241.6 72.1385 241.518 71.2881 241.558 70.367C241.509 69.0078 241.652 67.7003 241.725 66.2704C241.784 65.665 241.746 65.0337 241.709 64.4023C241.645 63.8676 241.582 63.3328 241.202 62.8169C240.585 62.0301 240.432 61.0572 240.375 60.1102C240.408 59.6014 240.319 59.1632 240.229 58.725C240.14 58.2869 239.876 58.1126 239.367 58.0796C238.491 58.2586 238.394 58.2327 238.331 57.6979C238.244 55.7074 238.06 53.6909 237.973 51.7003C237.928 51.4812 238.006 51.1915 237.864 50.9465C237.563 50.1408 237.042 49.3799 237.275 48.5107C237.07 47.7309 236.866 46.9512 236.757 46.1973C236.175 43.3493 235.883 40.579 235.959 37.5966C235.992 37.0878 235.999 36.6755 235.935 36.1408C235.782 35.1679 235.822 34.2468 235.985 33.255C236.147 32.2633 236.284 31.3681 236.446 30.3764C236.576 29.8934 236.873 29.5589 237.407 29.4953C238.941 29.182 240.423 29.0619 241.975 29.0643C242.484 29.0972 242.877 28.7887 243.174 28.4541C243.645 27.8558 243.923 27.2056 244.008 26.5036C244.171 25.5119 244.359 24.4235 244.425 23.4059C244.746 20.2822 244.943 17.2292 245.264 14.1055C245.514 10.8593 245.86 7.63908 246.013 4.36699C246.079 3.34932 246.267 2.26099 246.527 1.29514C246.708 0.619059 247.127 0.213879 247.855 0.202099C248.39 0.138499 248.925 0.0748989 249.337 0.0819689C249.846 0.114949 250.451 0.173849 250.986 0.110249C252.055 -0.0169551 253.047 0.145599 253.935 0.694479C254.199 0.868809 254.515 0.849959 254.805 0.927699C255.313 0.960689 255.822 0.993669 256.19 0.781659C257.092 0.506049 257.916 0.520179 258.708 1.04316C258.875 1.19157 259.191 1.17273 259.41 1.12797C259.822 1.13504 260.235 1.14211 260.55 1.12326C261.278 1.11149 261.735 1.33764 262.237 1.78287C263.883 3.36357 264.454 5.48371 264.585 7.69338C264.661 8.95604 264.517 10.2634 264.496 11.5002C264.265 15.062 264.253 18.5791 264.145 22.0703C264.093 26.5084 264.015 31.0432 263.867 35.4555C263.761 37.3942 263.558 39.307 263.452 41.2458C263.471 41.5615 263.393 41.8512 263.29 42.2375C263.005 43.3 262.939 44.3176 263.092 45.2906C263.155 45.8253 263.193 46.4566 263.16 46.9655C262.661 49.2128 262.741 51.6156 262.75 53.896C262.684 54.9136 262.618 55.9313 262.526 57.0456C262.343 59.2741 262.255 61.5285 262.484 63.7641C262.592 64.5179 262.578 65.3424 262.467 66.141C262.083 68.7299 262.208 71.3518 262.43 73.9996C262.531 75.1657 262.606 76.4284 262.611 77.5686C262.599 81.0856 262.587 84.6027 262.479 88.0939C262.439 89.015 262.521 89.8654 262.823 90.671C263.24 91.8183 263.341 92.9843 263.32 94.2211C263.273 95.5544 263.322 96.9137 263.372 98.2729C263.435 103.053 263.402 107.806 263.44 112.683C263.426 113.507 263.386 114.428 263.346 115.349C263.31 117.411 263.372 119.498 263.336 121.559C263.306 124.76 263.275 127.962 263.244 131.163C263.23 131.988 263.339 132.742 263.324 133.566C263.4 134.829 263.379 136.066 263.428 137.425C263.414 138.249 263.4 139.074 263.412 139.802C263.357 141.547 263.4 143.319 263.442 145.09C263.459 146.958 263.546 148.949 263.659 150.843C263.687 153.439 263.689 156.132 263.814 158.753C263.805 160.718 263.892 162.709 263.857 164.77C263.875 165.086 263.894 165.401 263.913 165.717C264.288 169.338 264.25 172.951 264.335 176.494C264.358 177.95 264.504 179.335 264.528 180.791C264.566 181.422 264.603 182.054 264.641 182.685C264.667 186.834 265.008 190.963 265.131 195.137C265.225 196.716 265.416 198.32 265.51 199.898C265.541 200.942 265.668 202.011 265.699 203.055C265.762 203.59 265.755 204.002 265.819 204.537C266.445 207.604 266.441 210.709 266.751 213.795C266.954 216.127 267.06 218.433 267.263 220.765C267.694 225.333 268.028 229.875 268.582 234.372C268.836 236.511 269.187 238.676 269.564 240.744C269.743 241.62 270.045 242.426 270.224 243.302C270.384 243.863 270.666 244.353 271.072 244.772C271.38 245.166 271.689 245.559 271.901 245.927C272.158 246.513 272.537 247.029 273.213 247.211C273.696 247.34 273.979 247.83 273.946 248.339C274.047 249.505 274.148 250.671 274.224 251.934C274.191 252.443 274.132 253.048 273.88 253.602C273.453 254.419 273.246 255.192 273.013 256.061C272.857 256.64 272.579 257.291 272.353 257.748C271.908 258.249 271.477 257.927 271.161 257.946C270.749 257.938 270.381 258.15 269.969 258.143C269.653 258.162 269.338 258.181 269.074 258.007C267.941 257.599 266.73 257.481 265.519 257.364C264.089 257.291 262.737 256.928 261.255 257.048C260.94 257.067 260.65 256.989 260.264 256.885C259.298 256.626 258.235 256.341 257.218 256.275C256.805 256.268 256.471 255.971 256.085 255.868C255.84 256.009 255.498 256.124 255.253 256.266C254.492 256.786 253.5 256.624 252.977 257.415C252.48 258.11 252.659 258.987 252.355 259.733C252 260.673 251.715 261.736 250.902 262.45C250.508 262.758 250.044 262.944 249.562 262.815C248.982 262.659 248.28 262.574 247.726 262.322C246.523 261.792 245.286 261.771 243.953 261.724C243.251 261.639 242.742 261.606 242.117 261.232C241.423 260.735 240.721 260.65 239.896 260.636C238.633 260.711 237.404 260.277 236.148 259.941C235.569 259.785 235.163 259.366 234.855 258.972C234.688 258.824 234.669 258.508 234.624 258.289C234.579 258.07 234.657 257.78 234.612 257.561C234.775 256.57 234.648 255.5 234.617 254.456C234.492 251.835 234.052 249.232 234.146 246.565C234.186 245.644 234.297 244.845 234.433 243.95C234.622 242.862 234.617 241.722 234.297 240.6C234.04 240.014 234.002 239.382 233.99 238.654C234.005 237.83 233.948 236.883 233.962 236.058C234.03 233.488 233.88 230.963 234.045 228.419C234.085 227.498 234.054 226.454 233.998 225.507C233.892 223.201 233.786 220.895 233.995 218.57C234.047 218.376 234.028 218.061 233.983 217.842C234.026 215.368 233.972 212.869 234.014 210.395C234.054 209.474 234.12 208.456 234.16 207.535C234.2 206.614 234.337 205.719 234.254 204.869C233.974 202.826 234.132 200.694 234.071 198.607C234.061 196.327 234.174 193.976 234.165 191.696C234.156 189.415 234.12 187.231 234.111 184.951C234.153 182.478 234.292 180.03 234.335 177.557C234.368 177.048 234.497 176.565 234.601 176.178C234.978 174.002 235.574 171.78 235.539 169.597C235.534 168.456 235.915 167.42 236.297 166.383C236.401 165.997 236.698 165.663 236.968 165.425C237.536 164.852 237.788 164.299 237.802 163.474C237.946 162.167 237.967 160.93 238.111 159.623C238.118 159.21 238.222 158.824 238.229 158.412C238.358 157.929 238.585 157.472 238.952 157.26C239.539 157.003 239.765 156.546 239.824 155.941C239.885 153.783 240.139 151.677 240.007 149.467C239.831 147.038 239.777 144.539 240.328 142.098C240.457 141.615 240.49 141.107 240.401 140.668C240.248 139.696 240.288 138.774 240.328 137.853C240.403 134.871 240.356 131.959 240.625 129.029C240.801 127.213 240.785 125.345 240.768 123.476C240.801 122.968 240.764 122.336 240.797 121.827C240.778 121.512 240.952 121.248 240.933 120.932C241.082 120.765 241.178 120.791 241.197 121.107C241.268 121.229 241.216 121.422 241.287 121.545C241.225 123.703 241.261 125.886 241.103 128.018C240.931 130.975 240.978 133.886 240.999 136.895C241.018 137.21 241.134 137.552 241.178 137.771C241.223 137.99 241.635 137.997 241.758 137.926C242.274 137.547 242.403 137.064 242.559 136.485C242.648 136.923 242.712 137.458 242.705 137.87C242.742 138.501 242.684 139.107 242.721 139.738C242.766 139.957 242.811 140.176 242.856 140.395C242.83 140.492 243.023 140.544 243.023 140.544C243.145 140.473 243.364 140.428 243.39 140.332C243.51 137.568 243.727 134.831 243.654 132.016C243.68 131.919 243.584 131.893 243.609 131.797C243.513 131.771 243.442 131.648 243.442 131.648C243.346 131.623 243.126 131.667 243.101 131.764C243.216 132.105 243.138 132.395 243.112 132.492ZM244.82 102.2C245.08 101.234 245.339 100.268 245.115 99.1731C245.141 99.0761 245.044 99.0501 244.948 99.0241C244.851 98.9984 244.825 99.0951 244.799 99.1911C244.347 100.105 244.474 101.175 244.82 102.2ZM241.751 155.319C241.777 155.222 241.802 155.126 241.802 155.126C241.934 153.09 242.066 151.055 242.224 148.923C242.276 148.73 242.205 148.607 242.135 148.485C242.033 147.319 241.932 146.153 241.953 144.916C242.005 144.723 241.864 144.478 241.722 144.233C241.722 144.233 241.626 144.207 241.529 144.181C241.433 144.155 241.407 144.252 241.381 144.348C241.07 145.507 241.268 146.699 241.15 147.91C240.844 150.209 240.95 152.515 240.959 154.796C241.004 155.015 241.049 155.234 241.19 155.479C241.164 155.575 241.357 155.627 241.357 155.627C241.506 155.46 241.628 155.389 241.751 155.319ZM244.104 85.9595C244.338 85.0902 244.364 84.9936 244.203 84.433C244.229 84.3364 244.133 84.3105 244.036 84.2846C243.843 84.2327 243.72 84.3034 243.669 84.4966C243.391 85.1468 243.402 85.8747 243.511 86.6285L243.704 86.6803C243.904 86.3199 244.078 86.0561 244.104 85.9595ZM244.936 106.786C245.014 106.497 244.846 106.348 244.653 106.296C244.557 106.27 244.46 106.244 244.434 106.341C244.286 106.508 244.208 106.798 244.472 106.972C244.542 107.095 244.762 107.05 244.858 107.076C244.787 106.954 244.813 106.857 244.936 106.786ZM244.91 94.148C245.007 94.1739 245.129 94.1032 245.129 94.1032C245.155 94.0066 245.207 93.8134 245.136 93.6909C245.065 93.5684 244.846 93.6132 244.75 93.5873C244.75 93.5873 244.601 93.7545 244.698 93.7805C244.769 93.903 244.839 94.0255 244.91 94.148ZM244.111 127.997C244.189 127.707 243.925 127.533 243.706 127.578C243.609 127.552 243.584 127.648 243.558 127.745C243.409 127.912 243.525 128.254 243.814 128.332C244.033 128.287 244.156 128.216 244.111 127.997ZM245.294 91.559C245.223 91.4365 245.153 91.314 245.082 91.1915C245.056 91.2881 244.959 91.2622 244.934 91.3588C244.882 91.552 244.952 91.6745 245.146 91.7263C245.172 91.6297 245.197 91.5331 245.294 91.559ZM245.839 21.6108C245.645 21.559 245.523 21.6297 245.471 21.8228C245.445 21.9194 245.419 22.016 245.516 22.0419C245.587 22.1644 245.78 22.2162 245.832 22.0231C245.954 21.9524 245.909 21.7333 245.839 21.6108ZM260.872 85.5921C260.776 85.5662 260.776 85.5662 260.679 85.5403C260.557 85.6109 260.531 85.7075 260.698 85.8559L260.891 85.9078C260.795 85.8819 260.846 85.6887 260.872 85.5921ZM248.335 108.009C248.309 108.105 248.161 108.273 248.135 108.369C248.18 108.588 248.276 108.614 248.521 108.473C248.521 108.473 248.644 108.402 248.573 108.28C248.599 108.183 248.528 108.061 248.335 108.009ZM235.395 200.619L235.446 200.426L235.253 200.374L235.395 200.619Z" fill="#6BB3FF"/>
<path d="M262.669 235.889C262.969 236.489 263.569 236.989 263.269 237.889C263.169 237.989 263.469 238.289 263.569 238.489C263.869 238.689 264.169 238.789 264.469 238.889C264.869 238.989 265.269 239.089 265.569 239.189C266.069 239.689 265.669 240.189 265.869 240.589C266.069 240.989 265.769 241.389 265.669 241.689C265.569 241.989 265.669 242.289 265.769 242.589C265.969 242.889 265.969 243.189 265.869 243.489C265.669 243.889 265.469 244.189 265.369 244.589C265.169 245.789 264.469 246.589 263.869 247.489C263.469 247.989 262.969 248.289 262.269 248.289C261.669 248.289 261.169 248.289 260.569 248.289C260.169 248.289 259.769 248.389 259.369 248.289C257.369 247.789 255.269 247.989 253.169 247.889C250.469 247.789 247.769 247.789 245.069 247.589C243.469 247.489 241.869 247.489 240.269 247.489C239.269 247.489 238.369 247.689 237.469 248.089C237.369 248.189 237.269 248.389 237.269 248.489C237.469 249.289 237.969 249.889 237.969 250.789C237.969 250.889 238.169 250.989 238.269 251.189C238.469 251.589 238.769 251.989 238.969 252.389C238.569 252.989 238.869 253.789 238.369 254.389C238.169 254.589 238.069 254.789 238.069 254.989C238.069 256.089 237.569 257.189 237.669 258.289C237.769 258.989 237.469 259.489 237.069 260.089C236.869 260.389 236.669 260.589 236.569 260.889C235.769 262.289 234.469 262.789 232.969 262.789C232.769 262.789 232.669 262.789 232.469 262.789C230.469 262.489 228.469 262.289 226.469 262.289C224.969 262.189 223.469 262.089 221.969 261.989C218.469 261.789 214.969 261.689 211.469 261.489C208.369 261.389 205.269 261.189 202.169 261.089C200.569 260.989 198.969 261.089 197.369 260.989C194.469 260.889 191.569 260.789 188.769 260.689C186.869 260.589 184.969 260.589 182.969 260.489C179.969 260.389 176.869 260.289 173.869 260.089C170.469 259.989 167.169 259.889 163.769 259.689C160.069 259.589 156.369 259.489 152.769 259.289C151.769 259.289 150.669 259.089 149.669 259.089C147.869 258.989 146.169 258.489 144.669 257.589C144.169 257.289 143.669 257.189 143.069 257.089C142.069 257.089 141.169 257.089 140.169 257.089C136.069 257.089 131.969 256.989 127.969 256.989C120.969 256.989 114.069 256.989 107.069 257.089C101.669 257.189 96.1687 257.289 90.7688 257.389C88.9687 257.389 87.2688 257.489 85.4688 257.589C84.6688 257.589 83.8688 257.589 83.0688 257.389C82.1688 257.189 81.4688 256.789 80.8688 256.089C80.2688 255.289 79.4688 254.589 78.6688 253.889C78.2688 253.489 77.8688 253.189 77.6688 252.589C77.5688 252.389 77.3688 252.289 77.1688 252.189C76.8688 252.089 76.5688 252.089 76.1688 252.089C73.8688 252.089 71.5688 252.189 69.2688 252.489C67.5688 252.689 65.7688 252.589 63.9688 252.689C62.3688 252.689 60.7688 252.589 59.1688 252.989C58.9688 253.089 58.6688 253.089 58.4688 253.089C56.9688 253.089 55.4688 253.089 53.8688 253.089C52.4688 253.089 50.9687 252.889 49.5688 252.489C48.8688 252.289 48.1687 252.089 47.7688 251.489C47.4687 251.089 46.9688 250.989 46.4688 250.889C45.6688 250.689 45.2688 250.289 45.0688 249.489C44.8688 248.889 44.5688 248.389 44.4688 247.689C44.3688 247.189 43.9688 246.889 43.4688 246.789C42.7688 246.589 42.0688 246.589 41.3688 246.689C38.9688 246.889 36.5688 246.989 34.1688 247.189C31.7688 247.389 29.3688 247.589 26.9688 247.889C23.2688 248.289 19.4687 248.689 15.7688 249.089C15.1687 249.189 14.6688 249.189 14.0688 249.189C13.2688 249.189 12.4688 249.089 11.9688 248.389C11.6688 247.989 11.1687 247.889 10.7688 247.589C10.5688 247.489 10.3688 247.289 10.2688 247.089C10.1687 246.289 9.36875 245.789 9.16874 244.989C9.06873 244.389 8.66877 243.989 8.46876 243.489C8.16877 242.489 7.46876 242.089 6.56877 241.989C6.26878 241.989 5.96876 241.889 5.56877 241.889C4.86875 241.889 4.16874 241.589 3.66874 241.089C3.46873 240.889 3.26875 240.789 3.16874 240.589C2.86875 240.389 2.56873 240.089 2.26875 239.889C2.26875 239.089 1.66877 238.589 1.56877 237.889C1.56877 237.389 1.46876 236.889 1.46876 236.489C1.46876 235.989 1.26875 235.589 0.968757 235.189C0.768744 234.989 0.668769 234.689 0.568763 234.389C0.368751 233.989 0.368751 233.589 0.168738 233.289C-0.131249 232.789 -0.031243 232.389 0.468757 232.089C0.868751 231.789 0.968757 231.489 0.768745 231.089C0.668738 230.689 0.568763 230.289 0.468757 229.989C0.468757 229.789 0.668739 229.489 0.868751 229.489C2.86875 229.089 4.96876 228.789 6.96876 228.489C8.16877 228.289 9.36875 228.389 10.5688 228.289C11.0688 228.289 11.5688 228.289 11.9688 228.289C13.4688 228.089 14.9688 227.989 16.4688 228.189C16.6688 228.189 16.7688 228.189 16.9688 228.189C19.9688 227.889 23.0688 228.089 26.0688 227.889C26.2688 227.889 26.3688 227.889 26.5688 227.889C28.5688 227.589 30.5688 227.789 32.5688 227.789C33.4687 227.789 34.3688 227.889 35.1688 227.789C38.4688 227.489 41.6688 227.689 44.9688 227.789C49.9688 227.789 55.0688 227.789 60.0688 227.889C60.6688 227.889 61.3688 227.889 61.9688 227.889C65.0688 227.989 68.1688 227.989 71.3688 227.989C72.0688 227.989 72.7688 227.989 73.5688 228.089C74.5688 228.089 75.6688 228.189 76.6688 228.089C77.6688 227.989 78.5688 227.989 79.5688 228.189C82.0688 228.589 84.4688 228.389 86.9688 228.289C87.4688 228.289 87.9688 228.189 88.3688 228.189C91.3688 228.289 94.4688 228.189 97.4688 227.989C99.2688 227.889 100.969 227.889 102.769 227.889C107.569 227.989 112.369 227.989 117.169 227.689C117.869 227.689 118.569 227.689 119.369 227.589C119.969 227.589 120.669 227.589 121.269 227.589C125.169 227.489 129.069 227.289 132.969 227.189C137.869 227.089 142.669 226.989 147.569 226.789C149.369 226.689 151.269 226.789 153.069 226.489C153.569 226.389 154.069 226.489 154.469 226.489C156.169 226.489 157.869 226.589 159.469 226.589C159.669 226.589 159.969 226.589 160.169 226.589C162.069 226.389 163.969 226.289 165.869 226.289C166.869 226.289 167.969 226.189 168.969 226.289C169.469 226.389 170.069 226.189 170.669 226.289C171.769 226.289 172.869 226.189 173.969 226.389C175.169 226.589 176.369 226.489 177.569 226.389C179.469 226.289 181.369 226.189 183.269 226.389C183.569 226.389 183.869 226.389 184.269 226.289C184.869 225.789 185.469 225.789 186.169 225.889C186.769 225.889 187.269 225.889 187.869 225.889C188.569 225.889 189.369 225.789 190.069 225.889C191.869 226.189 193.569 225.889 195.369 225.889C197.369 225.889 199.369 225.889 201.369 225.989C202.369 226.089 203.469 226.189 204.369 226.689C204.969 227.089 205.669 227.189 206.469 227.289C207.269 227.389 208.469 228.389 208.869 229.089C208.769 229.289 208.769 229.589 208.869 229.789C208.969 230.089 209.169 230.389 209.369 230.589C209.969 231.389 210.769 231.889 211.769 231.889C212.469 231.889 213.169 231.889 213.969 231.889C214.969 231.889 215.869 231.889 216.869 232.089C219.169 232.489 221.469 232.589 223.769 232.589C224.169 232.589 224.569 232.589 224.969 232.689C226.269 232.989 227.469 232.989 228.769 232.989C230.269 232.989 231.769 233.089 233.269 233.189C236.269 233.389 239.369 233.489 242.369 233.489C242.469 233.489 242.569 233.489 242.569 233.489C244.669 233.789 246.669 233.489 248.769 233.589C248.969 233.589 249.269 233.689 249.469 233.589C251.769 233.089 253.869 233.789 255.969 233.989C256.769 234.089 257.569 234.389 258.269 234.589C259.469 235.089 260.669 235.489 261.969 235.589C262.269 235.689 262.469 235.789 262.669 235.889Z" fill="#6BB3FF"/>
</svg>
