<svg width="190" height="170" viewBox="0 0 190 170" fill="none" xmlns="http://www.w3.org/2000/svg">
<g clipPath="url(#clip0_225_2889)">
<path d="M97.9225 169.995C95.9026 169.914 93.9635 169.914 91.9437 169.833C89.1967 169.752 86.3689 169.428 83.6219 169.185C81.2789 168.942 78.855 168.699 76.512 168.375C74.4114 168.132 72.3107 167.808 70.2101 167.484C66.4128 166.836 62.6962 166.107 59.0605 165.055C56.8791 164.407 54.7784 163.678 52.597 163.03C50.0924 162.22 47.6685 161.086 45.2447 160.033C44.9215 159.871 44.5176 159.709 44.1944 159.628C43.8712 159.466 43.4672 159.385 43.144 159.142C42.0129 158.333 40.5586 157.928 39.4275 157.118C37.9732 156.146 36.4381 155.336 34.9031 154.526C34.1759 154.121 33.4488 153.716 32.8024 153.149C32.6408 152.987 32.3984 152.744 32.1561 152.744C31.1865 152.42 30.5402 151.692 29.7322 151.125C28.2779 149.991 26.8236 148.695 25.4501 147.561C25.0462 147.156 24.5614 146.832 24.1574 146.427C23.5919 145.941 23.0263 145.374 22.4608 144.808C21.976 144.322 21.6528 143.836 21.1681 143.35C19.7138 142.054 18.5018 140.515 17.2899 139.057C16.7244 138.409 16.1588 137.842 15.5125 137.276C14.5429 136.466 13.4118 134.846 12.9271 134.117C11.7151 132.173 10.4224 130.149 9.21053 128.205C9.12973 128.124 9.04894 127.962 9.04894 127.881C8.241 126.018 7.10988 124.236 6.30194 122.374C5.73638 120.997 5.17082 119.62 4.76685 118.162C4.68606 117.838 4.60526 117.514 4.44368 117.271C3.63573 115.814 3.15097 114.194 2.82779 112.493C2.82779 112.331 2.747 112.088 2.747 111.926C2.18144 110.549 2.01985 109.011 1.61588 107.634C1.45429 107.148 1.3735 106.662 1.29271 106.095C1.13112 105.042 0.888735 104.07 0.727147 103.017C0.565559 101.722 0.403971 100.426 0.323176 99.13C0.161588 97.0243 0.0807941 94.9995 0 92.8939C0 92.7319 0 92.4889 0 92.3269C0.161588 89.8163 0.161588 87.3056 0.242382 84.795C0.403971 80.5836 1.13112 76.4532 1.77747 72.2418C2.18144 69.6501 2.90859 67.0585 3.55494 64.4669C4.28209 61.7133 5.17082 59.0406 6.14035 56.368C6.94829 54.0194 7.91782 51.7517 8.96815 49.565C9.93767 47.6213 10.9072 45.5965 12.0383 43.7338C13.1694 41.7091 14.3813 39.8464 15.5125 37.9026C16.8052 35.635 18.3403 33.6102 19.8753 31.5045C21.2488 29.6418 22.6223 27.7791 24.1574 25.9973C25.6117 24.2966 27.066 22.6768 28.6011 21.138C30.4594 19.1943 32.56 17.6555 34.4183 15.7118C36.6805 14.011 38.7812 12.3103 41.205 10.9335C41.6898 10.6905 42.0937 10.3665 42.4977 10.1236C45.1639 8.5038 47.9109 7.12699 50.7387 5.83117C53.8089 4.45437 56.9598 3.40152 60.1108 2.1057C60.5956 1.94372 61.0803 1.78175 61.6459 1.78175C62.2923 1.78175 62.9386 1.53878 63.5042 1.29582C63.8273 1.13384 64.2313 0.971862 64.6353 0.971862C65.8472 0.971862 67.0591 0.56692 68.271 0.404943C68.8366 0.323954 69.4021 0.0809885 69.9677 0.161977C71.0988 0.242966 72.3915 0 73.6842 0C74.169 0 74.573 0 75.0577 0C76.2696 0.161977 77.4815 0.323954 78.6935 0.485931C79.1782 0.56692 79.5822 0.647908 79.9862 0.809885C80.5517 0.890874 81.1173 1.05285 81.6828 1.13384C82.6524 1.21483 83.6219 1.37681 84.5106 1.70076C85.4802 2.02471 86.5305 2.1057 87.5808 1.94372C88.3887 1.86274 89.2775 1.78175 90.0854 1.86274C90.3278 1.86274 90.5702 1.94372 90.8934 1.86274C92.1053 1.70076 93.3172 1.78175 94.5291 1.70076C95.741 1.70076 96.9529 1.61977 98.1648 1.53878C99.6191 1.45779 101.154 1.37681 102.609 1.29582C104.063 1.29582 105.598 1.21483 107.052 1.29582C108.264 1.37681 109.476 1.53878 110.688 1.61977C111.657 1.70076 112.627 1.78175 113.597 1.86274C114.324 1.94372 114.97 2.02471 115.697 2.1057C116.828 2.26768 117.959 2.42966 119.171 2.59163C120.464 2.67262 121.676 2.99658 122.969 3.32053C123.857 3.5635 124.746 3.72547 125.635 3.96844C127.655 4.53536 129.755 5.02129 131.775 5.6692C132.664 5.99315 133.633 6.23612 134.522 6.47908C136.704 7.20798 138.966 7.93688 141.147 8.74676C143.41 9.63764 145.753 10.4475 147.934 11.5814C149.388 12.3103 150.762 13.1201 152.135 13.93C153.024 14.4969 153.913 14.9829 154.64 15.7118C154.721 15.7928 154.882 15.8738 154.963 15.9547C156.094 16.2787 156.983 17.1696 157.952 17.6555C158.276 17.8175 158.518 17.9795 158.76 18.1414C160.376 19.4372 162.073 20.5711 163.527 22.0289C163.77 22.2718 164.093 22.5148 164.416 22.7578C165.466 23.5677 166.517 24.5395 167.325 25.5924C167.567 25.9163 167.809 26.2403 168.052 26.4833C169.183 27.2931 169.91 28.427 170.718 29.5608C171.203 30.2087 171.607 30.7756 172.253 31.3426C172.576 31.5855 172.738 31.9095 172.98 32.2334C173.546 33.0433 174.111 33.8532 174.677 34.5821C175.081 35.068 175.162 35.7969 175.566 36.2829C175.97 36.7688 176.535 37.1737 176.858 37.7407C177.666 38.9555 178.393 40.1703 179.121 41.3851C179.201 41.4661 179.282 41.6281 179.282 41.7091C180.252 44.3007 181.787 46.6494 182.837 49.241C183.241 50.2129 183.564 51.1848 184.13 52.0756C184.291 52.3996 184.372 52.8045 184.534 53.2095C184.938 54.5863 185.261 55.9631 186.069 57.1779C186.23 57.5019 186.392 57.9068 186.473 58.2308C186.958 59.6886 187.442 61.0654 187.766 62.5231C188.008 63.657 188.25 64.7908 188.412 65.9247C188.816 68.3543 189.22 70.784 189.543 73.2136C189.785 74.9144 189.866 76.5342 189.947 78.2349C190.028 80.5026 190.028 82.7703 189.866 85.038C189.705 87.5486 189.462 90.0593 189.058 92.5699C188.735 94.7566 188.654 96.9433 188.008 99.049C187.765 101.479 187.2 103.746 186.554 106.095C186.473 106.5 186.311 106.986 186.23 107.391C185.422 110.873 184.211 114.194 182.837 117.514C182.029 119.458 181.14 121.402 180.09 123.346C179.201 124.965 178.313 126.666 177.262 128.205C176.212 129.663 175.323 131.201 174.273 132.74C173.95 133.307 173.546 133.793 173.142 134.279C172.495 135.089 171.849 135.899 171.203 136.709C170.88 137.114 170.556 137.519 170.152 137.842C169.425 138.652 168.617 139.462 167.89 140.191C167.082 141.001 166.274 141.892 165.466 142.702C164.982 143.188 164.578 143.593 164.093 144.079C163.85 144.322 163.689 144.565 163.366 144.727C161.507 145.941 160.053 147.642 158.356 149.019C155.852 150.963 153.428 152.987 150.762 154.688C149.308 155.66 147.772 156.47 146.237 157.361C145.429 157.847 144.702 158.252 143.894 158.738C142.925 159.223 142.036 159.871 140.986 160.195C140.016 160.519 139.047 160.843 138.158 161.491C137.916 161.653 137.592 161.734 137.269 161.896C136.3 162.301 135.33 162.625 134.361 163.03C132.664 163.84 130.806 164.245 129.028 164.812C128.705 164.893 128.382 164.974 128.139 165.055C127.574 165.217 127.089 165.541 126.524 165.703C125.958 165.865 125.392 165.865 124.827 166.027C123.453 166.512 121.918 166.755 120.545 167.241C120.302 167.322 120.06 167.403 119.818 167.484C118.444 167.565 117.151 168.051 115.859 168.294C114.566 168.537 113.354 168.78 112.061 168.78C111.577 168.78 111.173 168.861 110.688 168.942C110.042 169.023 109.395 169.104 108.749 169.104C108.587 169.104 108.345 169.104 108.183 169.104C105.759 169.509 103.255 169.347 100.831 169.59C100.023 170.076 98.9728 169.995 97.9225 169.995ZM129.998 154.931C130.24 154.607 130.482 154.283 130.644 153.959C130.886 153.554 131.21 153.311 131.614 153.068C132.664 152.582 133.714 152.177 134.684 151.449C134.926 151.287 135.249 151.206 135.573 151.044C135.815 150.963 136.057 150.882 136.3 150.72C137.512 149.667 139.127 149.181 140.259 147.966C140.501 147.723 140.986 147.561 141.228 147.318C142.198 146.022 143.41 145.212 144.864 144.484C145.106 144.403 145.268 144.16 145.429 143.998C145.753 143.593 146.157 143.269 146.641 143.026C147.126 142.783 147.53 142.459 147.772 141.973C148.015 141.406 148.5 141.082 148.984 140.758C149.388 140.515 149.873 140.191 150.115 139.705C150.358 139.138 150.843 138.814 151.327 138.571C151.57 138.409 151.893 138.247 152.055 137.923C152.378 137.357 152.862 136.952 153.347 136.466C154.236 135.494 155.367 134.603 156.094 133.469C156.417 132.983 156.902 132.659 157.387 132.254C157.791 131.282 158.68 130.796 159.326 130.068C159.649 129.663 159.972 129.258 160.296 128.853C160.942 127.881 161.75 127.071 162.235 126.018C162.962 125.289 163.527 124.398 163.931 123.427C164.254 122.617 165.224 122.293 165.466 121.483C165.709 120.673 165.951 119.863 166.436 119.215C166.759 118.81 166.921 118.324 167.163 117.838C168.133 116.219 168.779 114.437 169.587 112.736C171.041 109.658 172.091 106.5 172.899 103.179C173.627 100.264 174.273 97.4292 174.838 94.4326C175.485 90.9501 175.889 87.3866 176.131 83.8231C176.374 80.2596 176.212 76.6962 176.131 73.1327C176.131 72.9707 176.131 72.7277 176.05 72.5657C175.808 70.946 175.646 69.3262 175.404 67.7874C175 65.4387 174.677 63.0091 173.95 60.7414C173.303 58.6357 172.657 56.53 171.93 54.5053C171.041 52.0756 169.991 49.727 168.86 47.3783C168.133 45.8395 167.405 44.3817 166.597 42.8429C165.951 41.6281 165.224 40.4943 164.578 39.2794C163.85 37.8216 162.881 36.5258 161.911 35.23C161.507 34.6631 161.103 34.0962 160.619 33.5293C159.245 31.7475 157.872 29.9658 156.337 28.265C155.933 27.7791 155.609 27.2121 155.125 26.7262C154.64 26.2403 153.994 25.8353 153.509 25.3494C153.105 25.0255 152.862 24.5395 152.458 24.2156C152.055 23.8916 151.731 23.4867 151.327 23.1627C149.873 21.9479 148.5 20.7331 146.964 19.5992C146.48 19.2753 145.995 18.9513 145.51 18.6274C144.217 17.5745 142.682 16.8456 141.309 15.7928C141.147 15.7118 140.986 15.6308 140.824 15.4688C139.855 14.9019 138.885 14.416 137.916 13.849C137.673 13.6871 137.35 13.4441 137.108 13.3631C135.411 12.7152 133.795 11.8243 132.098 11.2574C130.967 10.9335 129.836 10.6095 128.786 10.2046C127.493 9.71863 126.2 9.39467 124.827 9.23269C123.211 8.98973 121.514 8.66577 119.818 8.66577C119.656 8.66577 119.414 8.66577 119.252 8.66577C115.455 8.34182 111.657 8.34182 107.86 8.42281C106.729 8.42281 105.517 8.58479 104.386 8.58479C101.397 8.66577 98.4072 8.82775 95.4986 9.07072C91.7013 9.39467 87.904 9.79961 84.1067 10.2046C80.5517 10.6095 77.0776 11.2574 73.6034 12.1483C71.5836 12.7152 69.6445 13.3631 67.7055 14.011C67.3015 14.173 66.8167 14.335 66.4128 14.254C65.928 14.173 65.524 14.254 65.12 14.5779C64.3929 15.1449 63.5042 15.3878 62.6154 15.5498C62.4538 15.5498 62.2115 15.6308 62.0499 15.7118C61.1611 16.0357 60.2724 16.4407 59.2221 16.2787C59.1413 16.2787 58.9797 16.2787 58.8181 16.3597C58.091 16.7646 57.2022 16.7646 56.3943 16.8456C56.0711 16.9266 55.7479 16.9266 55.4248 17.0076C54.4552 17.2506 53.4857 17.5745 52.4354 17.8175C51.4658 18.0604 50.6579 18.4654 49.85 19.0323C49.3652 19.4372 48.8804 19.8422 48.3149 20.2471C45.4063 22.3528 42.8209 24.7825 40.3163 27.2931C39.3467 28.265 38.2964 29.3179 37.4077 30.4517C35.711 32.4764 34.0951 34.5821 32.4792 36.6878C31.0249 38.6315 29.7322 40.5753 28.4395 42.6C26.8236 45.1106 25.3693 47.7022 23.9151 50.2939C21.572 54.6673 19.633 59.1216 18.1787 63.819C17.7747 65.1958 17.4515 66.5726 17.0476 67.9494C16.3204 70.298 15.8356 72.7277 15.3509 75.1574C14.8661 77.668 14.6237 80.1786 14.3006 82.6893C14.2198 83.4992 14.0582 84.3901 14.0582 85.1999C13.8966 88.2775 13.8158 91.4361 13.8966 94.5136C13.8966 94.9995 13.8966 95.5665 13.9774 96.0524C14.2198 98.725 14.5429 101.317 14.8661 103.989C14.9469 105.042 15.1893 106.014 15.3509 107.067C16.078 110.387 17.0476 113.627 18.1787 116.785C19.0674 119.134 19.9561 121.402 21.1681 123.508C22.2992 125.613 23.5919 127.638 24.8846 129.663C26.1773 131.768 27.7124 133.712 29.2475 135.575C29.8938 136.385 30.621 137.114 31.2673 137.923C32.56 139.381 33.9335 140.677 35.307 142.054C38.458 145.212 41.8513 147.885 45.4871 150.396C46.2142 150.882 46.9414 151.53 47.7493 151.935C49.042 152.582 50.1731 153.392 51.4658 153.959C52.0314 154.202 52.5162 154.526 53.0009 154.769C54.0513 155.336 55.1824 155.984 56.3135 156.47C59.0605 157.604 61.7267 158.9 64.6353 159.709C65.6048 160.033 66.5743 160.357 67.6247 160.6C69.8061 161.248 71.9875 161.734 74.2498 162.22C77.6431 162.868 81.1173 163.516 84.5914 163.759C84.9954 163.759 85.3994 163.84 85.7225 163.84C87.4192 163.921 89.0351 164.083 90.7318 164.083C92.5092 164.083 94.3675 164.002 96.145 163.921C97.6801 163.84 99.2152 163.678 100.75 163.516C102.124 163.354 103.416 162.949 104.709 162.625C105.598 162.382 106.487 162.22 107.375 162.22C107.86 162.22 108.264 162.22 108.668 161.977C108.83 161.896 109.153 161.896 109.395 161.977C109.718 161.977 109.88 161.896 110.042 161.734C110.122 161.572 110.365 161.491 110.526 161.491C111.011 161.572 111.415 161.41 111.819 161.167C112.223 160.924 112.627 160.762 113.031 160.6C114.808 160.114 116.586 159.466 118.363 158.98C118.525 158.9 118.767 158.819 118.929 158.819C119.414 158.819 119.818 158.819 120.302 158.819C120.868 158.738 120.949 158.009 121.434 157.847C122.565 157.523 123.373 156.551 124.585 156.47C124.827 156.47 125.069 156.227 125.231 156.146C125.473 155.984 125.635 155.822 125.877 155.741C126.766 155.498 127.574 155.093 128.382 154.688C128.705 154.526 129.109 154.445 129.513 154.445C129.917 154.607 129.998 154.769 129.998 154.931Z" fill="#6BB3FF"/>
</g>
<defs>
<clipPath id="clip0_225_2889">
<rect width="190" height="170" fill="white"/>
</clipPath>
</defs>
</svg>
