<svg width="35" height="42" viewBox="0 0 35 42" fill="none" xmlns="http://www.w3.org/2000/svg">
<path d="M21.0429 9.03706L0 19.8497V26.8832L21.0429 16.0705V9.03706Z" fill="url(#paint0_linear_1208_483)"/>
<path d="M34.8926 13.1312L25.9816 17.6452V6.9375L34.8926 13.1312Z" fill="url(#paint1_linear_1208_483)"/>
<path d="M35 24.1538L13.9571 34.9665V42L35 31.1873V24.1538Z" fill="url(#paint2_linear_1208_483)"/>
<path d="M35 14.6622L13.9571 25.4493V32.4662L35 21.6791V14.6622Z" fill="url(#paint3_linear_1208_483)"/>
<path d="M21.0429 0L0 10.7872V17.8041L21.0429 7.01689V0Z" fill="url(#paint4_linear_1208_483)"/>
<path d="M0 28.6959L9.01747 24.0878V34.875L0 28.6959Z" fill="url(#paint5_linear_1208_483)"/>
<defs>
<linearGradient id="paint0_linear_1208_483" x1="17.5" y1="6.9375" x2="17.5" y2="42" gradientUnits="userSpaceOnUse">
<stop stop-color="#FF00F5"/>
<stop offset="1" stop-color="#FF007A"/>
</linearGradient>
<linearGradient id="paint1_linear_1208_483" x1="17.5" y1="6.9375" x2="17.5" y2="42" gradientUnits="userSpaceOnUse">
<stop stop-color="#FF00F5"/>
<stop offset="1" stop-color="#FF007A"/>
</linearGradient>
<linearGradient id="paint2_linear_1208_483" x1="17.5" y1="6.9375" x2="17.5" y2="42" gradientUnits="userSpaceOnUse">
<stop stop-color="#FF00F5"/>
<stop offset="1" stop-color="#FF007A"/>
</linearGradient>
<linearGradient id="paint3_linear_1208_483" x1="17.5" y1="0" x2="17.5" y2="34.875" gradientUnits="userSpaceOnUse">
<stop stop-color="#FF5C00"/>
<stop offset="1" stop-color="#FF0000"/>
</linearGradient>
<linearGradient id="paint4_linear_1208_483" x1="17.5" y1="0" x2="17.5" y2="34.875" gradientUnits="userSpaceOnUse">
<stop stop-color="#FF5C00"/>
<stop offset="1" stop-color="#FF0000"/>
</linearGradient>
<linearGradient id="paint5_linear_1208_483" x1="17.5" y1="0" x2="17.5" y2="34.875" gradientUnits="userSpaceOnUse">
<stop stop-color="#FF5C00"/>
<stop offset="1" stop-color="#FF0000"/>
</linearGradient>
</defs>
</svg>
