<svg version="1.0" xmlns="http://www.w3.org/2000/svg"
 width="512.000000pt" height="512.000000pt" viewBox="0 0 512.000000 512.000000"
 preserveAspectRatio="xMidYMid meet">

<g transform="translate(0.000000,512.000000) scale(0.100000,-0.100000)"
fill="#000000" stroke="none">
<path d="M3180 3289 c-25 -5 -62 -16 -84 -24 -45 -18 -143 -84 -170 -113 -18
-21 -18 -22 22 -82 71 -105 86 -158 86 -295 1 -130 -15 -189 -71 -271 l-25
-38 38 -34 c66 -57 151 -92 235 -98 54 -3 68 -2 52 5 -17 8 -23 19 -23 43 0
18 -6 44 -13 58 -13 25 -14 91 -3 135 4 14 1 25 -7 28 -6 3 6 6 28 7 l40 2
-42 8 c-110 22 -163 85 -163 193 0 66 30 121 88 162 38 26 52 30 112 30 60 0
74 -4 111 -30 58 -41 89 -102 89 -177 0 -32 3 -58 8 -58 13 0 -3 216 -18 235
-4 6 -11 25 -15 42 -3 18 -10 35 -15 38 -16 10 -39 66 -33 81 3 7 0 14 -7 14
-6 0 -9 4 -5 9 3 5 -4 12 -15 16 -11 3 -19 11 -17 17 1 7 -10 18 -25 25 -19
10 -28 22 -28 39 0 16 -6 24 -17 24 -15 0 -16 2 -3 10 19 12 -45 12 -110 -1z"/>
<path d="M2355 3005 c-139 -26 -277 -98 -369 -194 -22 -22 -43 -38 -47 -35
-10 6 -40 -37 -33 -47 3 -5 -6 -28 -19 -51 -14 -24 -28 -54 -31 -68 -4 -14 10
7 30 45 43 82 94 150 104 138 4 -4 37 -101 75 -216 37 -114 71 -210 76 -213 5
-3 4 7 -1 22 -6 15 -8 36 -5 48 5 17 4 18 -4 6 -9 -13 -11 -13 -11 1 0 8 5 20
10 25 6 6 12 29 14 51 2 23 11 56 19 73 9 17 11 27 5 24 -14 -9 5 26 29 51 19
20 37 57 31 63 -2 2 5 8 15 13 9 6 15 14 12 20 -4 5 -2 9 3 9 6 0 13 12 18 28
l8 27 6 -35 7 -35 2 44 c1 59 34 125 78 158 20 15 65 35 102 45 l66 17 -60 0
c-33 -1 -91 -7 -130 -14z"/>
<path d="M2668 2950 c19 -19 42 -50 52 -69 11 -20 19 -31 20 -25 0 18 -54 93
-80 111 -18 11 -15 6 8 -17z"/>
<path d="M2742 2815 c0 -16 2 -22 5 -12 2 9 2 23 0 30 -3 6 -5 -1 -5 -18z"/>
<path d="M2310 2708 c0 -14 142 -433 150 -442 5 -5 42 -5 87 0 57 6 68 9 40
12 -24 2 -35 7 -31 14 8 13 6 237 -2 250 -3 4 2 8 11 8 19 0 91 36 100 49 3 6
-14 -1 -37 -14 -50 -29 -138 -34 -191 -11 -36 15 -87 66 -110 111 -9 17 -16
27 -17 23z"/>
<path d="M3318 2323 c7 -3 16 -2 19 1 4 3 -2 6 -13 5 -11 0 -14 -3 -6 -6z"/>
<path d="M2638 2283 c7 -3 16 -2 19 1 4 3 -2 6 -13 5 -11 0 -14 -3 -6 -6z"/>
<path d="M3157 2240 c3 -11 7 -20 9 -20 2 0 4 9 4 20 0 11 -4 20 -9 20 -5 0
-7 -9 -4 -20z"/>
<path d="M1727 2220 c-3 -8 -18 -53 -33 -100 -15 -47 -29 -91 -31 -97 -3 -7
21 1 54 17 32 17 92 37 133 46 86 18 98 24 46 24 -63 0 -133 45 -154 100 -7
18 -11 21 -15 10z"/>
<path d="M3180 2171 c5 -11 15 -23 21 -27 6 -3 3 5 -6 20 -20 30 -30 35 -15 7z"/>
<path d="M2155 2158 c-5 -11 -25 -19 -63 -24 -32 -4 -49 -10 -39 -12 10 -2 50
2 90 9 40 7 63 15 52 17 -11 2 -23 9 -27 15 -5 8 -9 6 -13 -5z"/>
<path d="M2221 2110 c0 -8 6 -28 14 -45 17 -39 18 -21 0 25 -7 19 -14 28 -14
20z"/>
<path d="M2261 1990 c0 -8 6 -28 14 -45 17 -39 18 -21 0 25 -7 19 -14 28 -14
20z"/>
</g>
</svg>
